<mxfile host="app.diagrams.net" modified="2024-05-06T06:45:08.383Z" agent="Mozilla/5.0 (Windows NT 10.0; Win64; x64) AppleWebKit/537.36 (KHTML, like Gecko) Chrome/124.0.0.0 Safari/537.36" etag="-zdszGgNUAqta8AmBOXW" version="24.3.1" type="device">
  <diagram name="Page-1" id="IHI5QLE-H-6v0qj7ruXF">
    <mxGraphModel dx="1615" dy="803" grid="1" gridSize="10" guides="1" tooltips="1" connect="1" arrows="1" fold="1" page="1" pageScale="1" pageWidth="850" pageHeight="1100" math="0" shadow="0">
      <root>
        <mxCell id="0" />
        <mxCell id="1" parent="0" />
        <mxCell id="zjJtpdYxiMiZax4AKBjy-1" value="&lt;font style=&quot;font-size: 36px;&quot;&gt;1&lt;/font&gt;" style="rounded=1;whiteSpace=wrap;html=1;fillColor=#D4E1F5;" vertex="1" parent="1">
          <mxGeometry x="120" y="100" width="90" height="60" as="geometry" />
        </mxCell>
        <mxCell id="zjJtpdYxiMiZax4AKBjy-17" style="edgeStyle=orthogonalEdgeStyle;rounded=0;orthogonalLoop=1;jettySize=auto;html=1;exitX=0.5;exitY=1;exitDx=0;exitDy=0;entryX=0.5;entryY=0;entryDx=0;entryDy=0;strokeWidth=2;" edge="1" parent="1" source="zjJtpdYxiMiZax4AKBjy-2" target="zjJtpdYxiMiZax4AKBjy-6">
          <mxGeometry relative="1" as="geometry" />
        </mxCell>
        <mxCell id="zjJtpdYxiMiZax4AKBjy-2" value="&lt;font style=&quot;font-size: 36px;&quot;&gt;2&lt;/font&gt;" style="rounded=1;whiteSpace=wrap;html=1;fillColor=#D4E1F5;" vertex="1" parent="1">
          <mxGeometry x="400" y="100" width="90" height="60" as="geometry" />
        </mxCell>
        <mxCell id="zjJtpdYxiMiZax4AKBjy-18" style="edgeStyle=orthogonalEdgeStyle;rounded=0;orthogonalLoop=1;jettySize=auto;html=1;exitX=0.5;exitY=1;exitDx=0;exitDy=0;entryX=0.5;entryY=0;entryDx=0;entryDy=0;strokeWidth=2;" edge="1" parent="1" source="zjJtpdYxiMiZax4AKBjy-3" target="zjJtpdYxiMiZax4AKBjy-7">
          <mxGeometry relative="1" as="geometry" />
        </mxCell>
        <mxCell id="zjJtpdYxiMiZax4AKBjy-3" value="&lt;font style=&quot;font-size: 36px;&quot;&gt;2.1&lt;/font&gt;" style="rounded=1;whiteSpace=wrap;html=1;fillColor=#D4E1F5;" vertex="1" parent="1">
          <mxGeometry x="640" y="100" width="90" height="60" as="geometry" />
        </mxCell>
        <mxCell id="zjJtpdYxiMiZax4AKBjy-19" style="edgeStyle=orthogonalEdgeStyle;rounded=0;orthogonalLoop=1;jettySize=auto;html=1;exitX=0.5;exitY=1;exitDx=0;exitDy=0;entryX=0.5;entryY=0;entryDx=0;entryDy=0;strokeWidth=2;" edge="1" parent="1" source="zjJtpdYxiMiZax4AKBjy-4" target="zjJtpdYxiMiZax4AKBjy-8">
          <mxGeometry relative="1" as="geometry" />
        </mxCell>
        <mxCell id="zjJtpdYxiMiZax4AKBjy-4" value="&lt;font style=&quot;font-size: 36px;&quot;&gt;2.2&lt;/font&gt;" style="rounded=1;whiteSpace=wrap;html=1;fillColor=#D4E1F5;" vertex="1" parent="1">
          <mxGeometry x="870" y="100" width="90" height="60" as="geometry" />
        </mxCell>
        <mxCell id="zjJtpdYxiMiZax4AKBjy-20" style="edgeStyle=orthogonalEdgeStyle;rounded=0;orthogonalLoop=1;jettySize=auto;html=1;exitX=0.5;exitY=1;exitDx=0;exitDy=0;entryX=0.5;entryY=0;entryDx=0;entryDy=0;strokeWidth=2;" edge="1" parent="1" source="zjJtpdYxiMiZax4AKBjy-5" target="zjJtpdYxiMiZax4AKBjy-9">
          <mxGeometry relative="1" as="geometry" />
        </mxCell>
        <mxCell id="zjJtpdYxiMiZax4AKBjy-5" value="&lt;font style=&quot;font-size: 36px;&quot;&gt;1&lt;/font&gt;" style="rounded=1;whiteSpace=wrap;html=1;fillColor=#D4E1F5;" vertex="1" parent="1">
          <mxGeometry x="120" y="370" width="90" height="60" as="geometry" />
        </mxCell>
        <mxCell id="zjJtpdYxiMiZax4AKBjy-21" style="edgeStyle=orthogonalEdgeStyle;rounded=0;orthogonalLoop=1;jettySize=auto;html=1;exitX=0.5;exitY=1;exitDx=0;exitDy=0;entryX=0.5;entryY=0;entryDx=0;entryDy=0;strokeWidth=2;" edge="1" parent="1" source="zjJtpdYxiMiZax4AKBjy-6" target="zjJtpdYxiMiZax4AKBjy-10">
          <mxGeometry relative="1" as="geometry" />
        </mxCell>
        <mxCell id="zjJtpdYxiMiZax4AKBjy-6" value="&lt;font style=&quot;font-size: 36px;&quot;&gt;2&lt;/font&gt;" style="rounded=1;whiteSpace=wrap;html=1;fillColor=#D4E1F5;" vertex="1" parent="1">
          <mxGeometry x="400" y="370" width="90" height="60" as="geometry" />
        </mxCell>
        <mxCell id="zjJtpdYxiMiZax4AKBjy-7" value="&lt;font style=&quot;font-size: 36px;&quot;&gt;2.1&lt;/font&gt;" style="rounded=1;whiteSpace=wrap;html=1;fillColor=#D4E1F5;" vertex="1" parent="1">
          <mxGeometry x="640" y="370" width="90" height="60" as="geometry" />
        </mxCell>
        <mxCell id="zjJtpdYxiMiZax4AKBjy-8" value="&lt;font style=&quot;font-size: 36px;&quot;&gt;2.2&lt;/font&gt;" style="rounded=1;whiteSpace=wrap;html=1;fillColor=#D4E1F5;" vertex="1" parent="1">
          <mxGeometry x="870" y="370" width="90" height="60" as="geometry" />
        </mxCell>
        <mxCell id="zjJtpdYxiMiZax4AKBjy-9" value="&lt;font style=&quot;font-size: 36px;&quot;&gt;1&lt;/font&gt;" style="rounded=1;whiteSpace=wrap;html=1;fillColor=#CCFF99;" vertex="1" parent="1">
          <mxGeometry x="120" y="520" width="90" height="60" as="geometry" />
        </mxCell>
        <mxCell id="zjJtpdYxiMiZax4AKBjy-10" value="&lt;font style=&quot;font-size: 36px;&quot;&gt;2&lt;/font&gt;" style="rounded=1;whiteSpace=wrap;html=1;fillColor=#FFE6CC;" vertex="1" parent="1">
          <mxGeometry x="400" y="520" width="90" height="60" as="geometry" />
        </mxCell>
        <mxCell id="zjJtpdYxiMiZax4AKBjy-22" style="edgeStyle=orthogonalEdgeStyle;rounded=0;orthogonalLoop=1;jettySize=auto;html=1;exitX=0.5;exitY=1;exitDx=0;exitDy=0;entryX=0.5;entryY=0;entryDx=0;entryDy=0;strokeWidth=2;" edge="1" parent="1" source="zjJtpdYxiMiZax4AKBjy-11" target="zjJtpdYxiMiZax4AKBjy-12">
          <mxGeometry relative="1" as="geometry" />
        </mxCell>
        <mxCell id="zjJtpdYxiMiZax4AKBjy-11" value="&lt;font style=&quot;font-size: 36px;&quot;&gt;2&lt;/font&gt;" style="rounded=1;whiteSpace=wrap;html=1;fillColor=#D4E1F5;" vertex="1" parent="1">
          <mxGeometry x="640" y="440" width="90" height="60" as="geometry" />
        </mxCell>
        <mxCell id="zjJtpdYxiMiZax4AKBjy-12" value="&lt;font style=&quot;font-size: 36px;&quot;&gt;2&lt;/font&gt;" style="rounded=1;whiteSpace=wrap;html=1;fillColor=#FFE6CC;" vertex="1" parent="1">
          <mxGeometry x="640" y="570" width="90" height="60" as="geometry" />
        </mxCell>
        <mxCell id="zjJtpdYxiMiZax4AKBjy-13" value="&lt;font style=&quot;font-size: 36px;&quot;&gt;2.1&lt;/font&gt;" style="rounded=1;whiteSpace=wrap;html=1;fillColor=#D4E1F5;" vertex="1" parent="1">
          <mxGeometry x="870" y="440" width="90" height="60" as="geometry" />
        </mxCell>
        <mxCell id="zjJtpdYxiMiZax4AKBjy-23" style="edgeStyle=orthogonalEdgeStyle;rounded=0;orthogonalLoop=1;jettySize=auto;html=1;exitX=0.5;exitY=1;exitDx=0;exitDy=0;entryX=0.5;entryY=0;entryDx=0;entryDy=0;strokeWidth=2;" edge="1" parent="1" source="zjJtpdYxiMiZax4AKBjy-14">
          <mxGeometry relative="1" as="geometry">
            <mxPoint x="915" y="640" as="targetPoint" />
          </mxGeometry>
        </mxCell>
        <mxCell id="zjJtpdYxiMiZax4AKBjy-14" value="&lt;font style=&quot;font-size: 36px;&quot;&gt;2&lt;/font&gt;" style="rounded=1;whiteSpace=wrap;html=1;fillColor=#D4E1F5;" vertex="1" parent="1">
          <mxGeometry x="870" y="510" width="90" height="60" as="geometry" />
        </mxCell>
        <mxCell id="zjJtpdYxiMiZax4AKBjy-15" value="&lt;font style=&quot;font-size: 36px;&quot;&gt;2&lt;/font&gt;" style="rounded=1;whiteSpace=wrap;html=1;fillColor=#CCFF99;" vertex="1" parent="1">
          <mxGeometry x="870" y="640" width="90" height="60" as="geometry" />
        </mxCell>
        <mxCell id="zjJtpdYxiMiZax4AKBjy-16" style="edgeStyle=orthogonalEdgeStyle;rounded=0;orthogonalLoop=1;jettySize=auto;html=1;exitX=0.5;exitY=1;exitDx=0;exitDy=0;entryX=0.5;entryY=0;entryDx=0;entryDy=0;strokeWidth=2;" edge="1" parent="1" source="zjJtpdYxiMiZax4AKBjy-1" target="zjJtpdYxiMiZax4AKBjy-5">
          <mxGeometry relative="1" as="geometry" />
        </mxCell>
        <mxCell id="zjJtpdYxiMiZax4AKBjy-25" value="" style="line;strokeWidth=2;html=1;dashed=1;" vertex="1" parent="1">
          <mxGeometry x="10" y="250" width="1210" height="10" as="geometry" />
        </mxCell>
        <mxCell id="zjJtpdYxiMiZax4AKBjy-33" value="" style="endArrow=classic;html=1;rounded=0;exitX=1;exitY=0;exitDx=0;exitDy=0;entryX=0;entryY=1;entryDx=0;entryDy=0;strokeWidth=2;" edge="1" parent="1" source="zjJtpdYxiMiZax4AKBjy-9" target="zjJtpdYxiMiZax4AKBjy-2">
          <mxGeometry width="50" height="50" relative="1" as="geometry">
            <mxPoint x="430" y="450" as="sourcePoint" />
            <mxPoint x="480" y="400" as="targetPoint" />
          </mxGeometry>
        </mxCell>
        <mxCell id="zjJtpdYxiMiZax4AKBjy-35" value="" style="endArrow=classic;html=1;rounded=0;entryX=0;entryY=1;entryDx=0;entryDy=0;exitX=1;exitY=0;exitDx=0;exitDy=0;strokeWidth=2;" edge="1" parent="1" source="zjJtpdYxiMiZax4AKBjy-10" target="zjJtpdYxiMiZax4AKBjy-3">
          <mxGeometry width="50" height="50" relative="1" as="geometry">
            <mxPoint x="430" y="450" as="sourcePoint" />
            <mxPoint x="480" y="400" as="targetPoint" />
          </mxGeometry>
        </mxCell>
        <mxCell id="zjJtpdYxiMiZax4AKBjy-37" value="" style="endArrow=classic;html=1;rounded=0;exitX=1;exitY=0;exitDx=0;exitDy=0;entryX=0;entryY=1;entryDx=0;entryDy=0;strokeWidth=2;" edge="1" parent="1" source="zjJtpdYxiMiZax4AKBjy-12" target="zjJtpdYxiMiZax4AKBjy-4">
          <mxGeometry width="50" height="50" relative="1" as="geometry">
            <mxPoint x="430" y="450" as="sourcePoint" />
            <mxPoint x="480" y="400" as="targetPoint" />
          </mxGeometry>
        </mxCell>
        <mxCell id="zjJtpdYxiMiZax4AKBjy-41" value="" style="html=1;verticalAlign=bottom;endArrow=block;curved=0;rounded=0;" edge="1" parent="1">
          <mxGeometry x="0.0122" y="10" width="80" relative="1" as="geometry">
            <mxPoint x="40" y="44.230000000000004" as="sourcePoint" />
            <mxPoint x="442" y="44.230000000000004" as="targetPoint" />
            <mxPoint as="offset" />
          </mxGeometry>
        </mxCell>
        <mxCell id="zjJtpdYxiMiZax4AKBjy-43" value="" style="shape=curlyBracket;whiteSpace=wrap;html=1;rounded=1;labelPosition=left;verticalLabelPosition=middle;align=right;verticalAlign=middle;strokeWidth=2;" vertex="1" parent="1">
          <mxGeometry x="605" y="370" width="20" height="130" as="geometry" />
        </mxCell>
        <mxCell id="zjJtpdYxiMiZax4AKBjy-46" value="" style="shape=curlyBracket;whiteSpace=wrap;html=1;rounded=1;labelPosition=left;verticalLabelPosition=middle;align=right;verticalAlign=middle;strokeWidth=2;" vertex="1" parent="1">
          <mxGeometry x="840" y="370" width="20" height="200" as="geometry" />
        </mxCell>
        <mxCell id="zjJtpdYxiMiZax4AKBjy-48" value="&lt;font face=&quot;Georgia&quot; style=&quot;font-size: 24px;&quot;&gt;Combine&lt;/font&gt;" style="text;html=1;align=center;verticalAlign=middle;whiteSpace=wrap;rounded=0;rotation=270;" vertex="1" parent="1">
          <mxGeometry x="540" y="380" width="100" height="130" as="geometry" />
        </mxCell>
        <mxCell id="zjJtpdYxiMiZax4AKBjy-49" value="&lt;font face=&quot;Georgia&quot; style=&quot;font-size: 24px;&quot;&gt;Combine&lt;/font&gt;" style="text;html=1;align=center;verticalAlign=middle;whiteSpace=wrap;rounded=0;rotation=270;" vertex="1" parent="1">
          <mxGeometry x="770" y="405" width="100" height="130" as="geometry" />
        </mxCell>
        <mxCell id="zjJtpdYxiMiZax4AKBjy-52" value="&lt;font style=&quot;font-size: 23px;&quot;&gt;Transmitted Packets&lt;/font&gt;" style="text;html=1;align=center;verticalAlign=middle;whiteSpace=wrap;rounded=0;" vertex="1" parent="1">
          <mxGeometry x="450" y="30" width="215" height="30" as="geometry" />
        </mxCell>
        <mxCell id="zjJtpdYxiMiZax4AKBjy-53" value="&lt;span style=&quot;font-size: 24px;&quot;&gt;ACK&lt;/span&gt;" style="text;html=1;align=center;verticalAlign=middle;whiteSpace=wrap;rounded=0;" vertex="1" parent="1">
          <mxGeometry x="240" y="310" width="60" height="30" as="geometry" />
        </mxCell>
        <mxCell id="zjJtpdYxiMiZax4AKBjy-54" value="&lt;span style=&quot;font-size: 24px;&quot;&gt;NACK&lt;/span&gt;" style="text;html=1;align=center;verticalAlign=middle;whiteSpace=wrap;rounded=0;" vertex="1" parent="1">
          <mxGeometry x="500" y="310" width="60" height="30" as="geometry" />
        </mxCell>
        <mxCell id="zjJtpdYxiMiZax4AKBjy-55" value="&lt;span style=&quot;font-size: 24px;&quot;&gt;NACK&lt;/span&gt;" style="text;html=1;align=center;verticalAlign=middle;whiteSpace=wrap;rounded=0;" vertex="1" parent="1">
          <mxGeometry x="740" y="310" width="60" height="30" as="geometry" />
        </mxCell>
        <mxCell id="zjJtpdYxiMiZax4AKBjy-56" value="&lt;font style=&quot;font-size: 24px;&quot;&gt;Transmitter&lt;/font&gt;" style="text;html=1;align=center;verticalAlign=middle;whiteSpace=wrap;rounded=0;" vertex="1" parent="1">
          <mxGeometry x="50" y="210" width="60" height="30" as="geometry" />
        </mxCell>
        <mxCell id="zjJtpdYxiMiZax4AKBjy-57" value="&lt;font style=&quot;font-size: 24px;&quot;&gt;Reciever&lt;/font&gt;" style="text;html=1;align=center;verticalAlign=middle;whiteSpace=wrap;rounded=0;" vertex="1" parent="1">
          <mxGeometry x="40" y="310" width="60" height="30" as="geometry" />
        </mxCell>
        <mxCell id="zjJtpdYxiMiZax4AKBjy-58" value="" style="rounded=1;whiteSpace=wrap;html=1;fillColor=#CCFF99;" vertex="1" parent="1">
          <mxGeometry x="510" y="800" width="90" height="50" as="geometry" />
        </mxCell>
        <mxCell id="zjJtpdYxiMiZax4AKBjy-59" value="&lt;font size=&quot;1&quot; style=&quot;&quot;&gt;&lt;span style=&quot;font-size: 22px;&quot;&gt;Transmitted/recieved packet&lt;/span&gt;&lt;/font&gt;" style="text;html=1;align=center;verticalAlign=middle;whiteSpace=wrap;rounded=0;strokeWidth=2;" vertex="1" parent="1">
          <mxGeometry x="240" y="810" width="140" height="30" as="geometry" />
        </mxCell>
        <mxCell id="zjJtpdYxiMiZax4AKBjy-60" value="" style="rounded=1;whiteSpace=wrap;html=1;fillColor=#D4E1F5;" vertex="1" parent="1">
          <mxGeometry x="110" y="800" width="90" height="50" as="geometry" />
        </mxCell>
        <mxCell id="zjJtpdYxiMiZax4AKBjy-65" value="&lt;font size=&quot;1&quot; style=&quot;&quot;&gt;&lt;span style=&quot;font-size: 22px;&quot;&gt;Successfully decoded packet&lt;/span&gt;&lt;/font&gt;" style="text;html=1;align=center;verticalAlign=middle;whiteSpace=wrap;rounded=0;strokeWidth=2;" vertex="1" parent="1">
          <mxGeometry x="630" y="810" width="185" height="30" as="geometry" />
        </mxCell>
        <mxCell id="zjJtpdYxiMiZax4AKBjy-66" value="" style="rounded=1;whiteSpace=wrap;html=1;fillColor=#FFE6CC;" vertex="1" parent="1">
          <mxGeometry x="880" y="800" width="90" height="50" as="geometry" />
        </mxCell>
        <mxCell id="zjJtpdYxiMiZax4AKBjy-67" value="&lt;font size=&quot;1&quot; style=&quot;&quot;&gt;&lt;span style=&quot;font-size: 22px;&quot;&gt;Packet with errors&lt;/span&gt;&lt;/font&gt;" style="text;html=1;align=center;verticalAlign=middle;whiteSpace=wrap;rounded=0;strokeWidth=2;" vertex="1" parent="1">
          <mxGeometry x="990" y="800" width="185" height="30" as="geometry" />
        </mxCell>
        <mxCell id="zjJtpdYxiMiZax4AKBjy-68" value="&lt;font style=&quot;font-size: 21px;&quot;&gt;Decoding&lt;/font&gt;" style="text;html=1;align=center;verticalAlign=middle;whiteSpace=wrap;rounded=0;" vertex="1" parent="1">
          <mxGeometry x="80" y="470" width="60" height="30" as="geometry" />
        </mxCell>
        <mxCell id="zjJtpdYxiMiZax4AKBjy-71" value="&lt;font style=&quot;font-size: 21px;&quot;&gt;Decoding&lt;/font&gt;" style="text;html=1;align=center;verticalAlign=middle;whiteSpace=wrap;rounded=0;" vertex="1" parent="1">
          <mxGeometry x="340" y="470" width="60" height="30" as="geometry" />
        </mxCell>
        <mxCell id="zjJtpdYxiMiZax4AKBjy-72" value="&lt;font style=&quot;font-size: 21px;&quot;&gt;Decoding&lt;/font&gt;" style="text;html=1;align=center;verticalAlign=middle;whiteSpace=wrap;rounded=0;" vertex="1" parent="1">
          <mxGeometry x="590" y="525" width="60" height="30" as="geometry" />
        </mxCell>
        <mxCell id="zjJtpdYxiMiZax4AKBjy-73" value="&lt;font style=&quot;font-size: 21px;&quot;&gt;Decoding&lt;/font&gt;" style="text;html=1;align=center;verticalAlign=middle;whiteSpace=wrap;rounded=0;" vertex="1" parent="1">
          <mxGeometry x="810" y="590" width="60" height="30" as="geometry" />
        </mxCell>
        <mxCell id="zjJtpdYxiMiZax4AKBjy-78" style="edgeStyle=orthogonalEdgeStyle;rounded=0;orthogonalLoop=1;jettySize=auto;html=1;" edge="1" parent="1" source="zjJtpdYxiMiZax4AKBjy-74" target="zjJtpdYxiMiZax4AKBjy-76">
          <mxGeometry relative="1" as="geometry">
            <Array as="points" />
          </mxGeometry>
        </mxCell>
        <mxCell id="zjJtpdYxiMiZax4AKBjy-74" value="&lt;font style=&quot;font-size: 24px;&quot;&gt;Buffer&lt;/font&gt;" style="text;html=1;align=center;verticalAlign=middle;whiteSpace=wrap;rounded=0;" vertex="1" parent="1">
          <mxGeometry x="590" y="670" width="90" height="30" as="geometry" />
        </mxCell>
        <mxCell id="zjJtpdYxiMiZax4AKBjy-76" value="&lt;font style=&quot;font-size: 24px;&quot;&gt;2&lt;/font&gt;" style="text;html=1;align=center;verticalAlign=middle;whiteSpace=wrap;rounded=0;" vertex="1" parent="1">
          <mxGeometry x="730" y="670" width="30" height="30" as="geometry" />
        </mxCell>
        <mxCell id="zjJtpdYxiMiZax4AKBjy-87" style="edgeStyle=orthogonalEdgeStyle;rounded=0;orthogonalLoop=1;jettySize=auto;html=1;" edge="1" parent="1" source="zjJtpdYxiMiZax4AKBjy-88" target="zjJtpdYxiMiZax4AKBjy-89">
          <mxGeometry relative="1" as="geometry">
            <Array as="points" />
          </mxGeometry>
        </mxCell>
        <mxCell id="zjJtpdYxiMiZax4AKBjy-88" value="&lt;font style=&quot;font-size: 24px;&quot;&gt;Buffer&lt;/font&gt;" style="text;html=1;align=center;verticalAlign=middle;whiteSpace=wrap;rounded=0;" vertex="1" parent="1">
          <mxGeometry x="830" y="720" width="90" height="30" as="geometry" />
        </mxCell>
        <mxCell id="zjJtpdYxiMiZax4AKBjy-89" value="&lt;span style=&quot;font-size: 24px;&quot;&gt;2,2.1&lt;/span&gt;" style="text;html=1;align=center;verticalAlign=middle;whiteSpace=wrap;rounded=0;" vertex="1" parent="1">
          <mxGeometry x="970" y="720" width="70" height="30" as="geometry" />
        </mxCell>
      </root>
    </mxGraphModel>
  </diagram>
</mxfile>
